<?xml version="1.0" standalone="no"?><!DOCTYPE svg PUBLIC "-//W3C//DTD SVG 1.1//EN" "http://www.w3.org/Graphics/SVG/1.1/DTD/svg11.dtd"><svg t="1725356828019" class="icon" viewBox="0 0 1024 1024" version="1.1" xmlns="http://www.w3.org/2000/svg" p-id="1611" xmlns:xlink="http://www.w3.org/1999/xlink" width="200" height="200"><path d="M159.8976 675.84h249.1392v137.3696a111.7696 111.7696 0 0 1-111.7696 111.7696h-25.6a111.7696 111.7696 0 0 1-111.7696-111.7696V675.84z" fill="#7518ED" p-id="1612"></path><path d="M159.8976 675.84H374.272v141.9776a107.1616 107.1616 0 0 1-107.1616 107.1616 107.1616 107.1616 0 0 1-107.1616-107.1616V675.84h-0.0512z" fill="#9539FC" p-id="1613"></path><path d="M635.2896 116.1728l-245.4528 148.48h-235.52a87.04 87.04 0 0 0-86.3744 87.04v265.472a87.04 87.04 0 0 0 86.3744 87.04h253.44l234.24 149.504c60.5696 27.5968 108.6976-8.6528 108.6976-50.8416V181.6064c0-80.896-78.8992-87.6032-115.4048-65.4336z" fill="#EA4606" p-id="1614"></path><path d="M632.7808 162.4064L394.24 305.4592H149.0944a81.3568 81.3568 0 0 0-81.3568 81.3568v247.2448a81.3568 81.3568 0 0 0 81.3568 81.3568h238.7968l246.3744 136.96a51.5584 51.5584 0 0 0 76.8-45.056V206.6432a51.5584 51.5584 0 0 0-78.2848-44.2368z" fill="#F56B2E" p-id="1615"></path><path d="M798.976 413.1328a39.0656 39.0656 0 0 1-34.1504-26.88c-8.2944-22.528 1.2288-48.5888 21.248-58.2144l90.4704-43.8784a43.2128 43.2128 0 0 1 58.0608 20.0704c9.9328 21.8112-4.2496 50.0736-24.32 59.6992L816.0768 409.6a34.6624 34.6624 0 0 1-17.1008 3.5328z" fill="#FF9100" p-id="1616"></path><path d="M800.6144 413.184a34.3552 34.3552 0 0 1-14.848-65.3824l88.9856-42.5984a34.3552 34.3552 0 1 1 29.696 62.0032L815.4624 409.6a34.304 34.304 0 0 1-14.848 3.584z" fill="#FCB423" p-id="1617"></path><path d="M911.36 541.3376h-118.8352c-20.48 0-36.9664-19.3536-36.9664-43.2128s16.5888-43.264 36.9664-43.264H911.36c20.48 0 36.9664 19.3536 36.9664 43.264s-16.4864 43.2128-36.9664 43.2128z" fill="#FF9100" p-id="1618"></path><path d="M900.2496 541.3376h-110.2848a34.4064 34.4064 0 1 1 0-68.7616h110.2848a34.4064 34.4064 0 1 1 0 68.7616z" fill="#FCB423" p-id="1619"></path><path d="M909.4144 715.264a70.0928 70.0928 0 0 1-27.3408-6.4512l-94.8736-51.6096a39.936 39.936 0 1 1 32.9728-72.7552l109.2608 49.5104a40.6528 40.6528 0 0 1 19.8656 52.8896c-6.9632 17.5104-18.8416 28.416-39.8848 28.416z" fill="#FF9100" p-id="1620"></path><path d="M892.1088 710.2976a34.048 34.048 0 0 1-14.1824-3.072l-94.0032-42.6496a34.3552 34.3552 0 1 1 28.3648-62.5664L906.24 644.608a34.3552 34.3552 0 0 1-14.1824 65.6896z" fill="#FCB423" p-id="1621"></path><path d="M597.0944 720.7424a34.3552 34.3552 0 0 1-34.3552-34.3552V424.96a34.3552 34.3552 0 1 1 68.7104 0v261.376a34.3552 34.3552 0 0 1-34.3552 34.4064z" fill="#EA4606" p-id="1622"></path><path d="M597.0944 684.0832a34.3552 34.3552 0 0 1-34.3552-34.4064v-261.12a34.3552 34.3552 0 1 1 68.7104 0v261.376a34.3552 34.3552 0 0 1-34.3552 34.1504z" fill="#FFFFFF" p-id="1623"></path></svg>